{"title":"Disney Pixar's Up 2010 BRRip Xvid LKRG","uid":5935724,"size":1713152470,"categoryP":"video","categoryS":"hd___movies","magnet":"?xt=urn:btih:d2ba515be6d3d11904878c832250d6e235457983&amp;dn=Disney+Pixar%5C%27s+Up+2010+BRRip+Xvid+LKRG&amp;tr=udp%3A%2F%2Ftracker.openbittorrent.com%3A80&amp;tr=udp%3A%2F%2Fopen.demonii.com%3A1337&amp;tr=udp%3A%2F%2Ftracker.coppersurfer.tk%3A6969&amp;tr=udp%3A%2F%2Fexodus.desync.com%3A6969","seeders":4,"leechers":1,"uploader":"deffjam555","files":119,"time":1288939886,"description":"cover\n\n\n\nPlot: By tying thousands of balloon to his home, 78-year-old Carl Fredricksen sets out to fulfill his lifelong dream to see the wilds of South America. Right after lifting off, however, he learns he isn't alone on his journey, since Russell, a wilderness explorer 70 years his junior, has inadvertently become a stowaway on the trip.\n\nCast: Edward Asner ...\nCarl Fredricksen (voice) (as Ed Asner)\nChristopher Plummer Christopher Plummer ...\nCharles Muntz (voice)\nJordan Nagai Jordan Nagai ...\nRussell (voice)\nBob Peterson Bob Peterson ...\nDug / Alpha (voice)\nDelroy Lindo Delroy Lindo ...\nBeta (voice)\nJerome Ranft Jerome Ranft ...\nGamma (voice)\nJohn Ratzenberger John Ratzenberger ...\nConstruction Foreman Tom (voice)\nDavid Kaye David Kaye ...\nNewsreel Announcer (voice)\n\n\nscreens\n\nFormat;Avi\n\nFile Size:1.6gb\n\nVideo: ID : 0\nFormat : MPEG-4 Visual\nFormat profile : Simple@L3\nFormat settings, BVOP : No\nFormat settings, QPel : No\nFormat settings, GMC : No warppoints\nFormat settings, Matrix : Default (H.263)\nCodec ID : XVID\nCodec ID/Hint : XviD\nDuration : 1h 36mn\nBit rate : 1 996 Kbps\nWidth : 704 pixels\nHeight : 384 pixels\nDisplay aspect ratio : 16:9\nFrame rate : 23.976 fps\nColor space : YUV\nChroma subsampling : 4:2:0\nBit depth : 8 bits\nScan type : Progressive\nBits/(Pixel*Frame) : 0.308\nStream size : 1.34 GiB (84%)\nWriting library : XviD 1.2.1 (UTC 2008-12-04)\n\nAudio: ID : 1\nFormat : AC-3\nFormat/Info : Audio Coding 3\nMode extension : CM (complete main)\nCodec ID : 2000\nDuration : 1h 36mn\nBit rate mode : Constant\nBit rate : 384 Kbps\nChannel(s) : 2 channels\nChannel positions : Front: L R\nSampling rate : 48.0 KHz\nBit depth : 16 bits\nStream size : 264 MiB (16%)\nAlignment : Split accross interleaves\nInterleave, duration : 42 ms (1.00 video frame)\nInterleave, preload duration : 500 ms\n\nDuration:1:36\n\nRelease Date:2010\n\nLanguage:English\n","torrent":{"xt":"urn:btih:d2ba515be6d3d11904878c832250d6e235457983","amp;dn":"Disney+Pixar%5C%27s+Up+2010+BRRip+Xvid+LKRG","amp;tr":["udp%3A%2F%2Ftracker.openbittorrent.com%3A80","udp%3A%2F%2Fopen.demonii.com%3A1337","udp%3A%2F%2Ftracker.coppersurfer.tk%3A6969","udp%3A%2F%2Fexodus.desync.com%3A6969"],"infoHash":"d2ba515be6d3d11904878c832250d6e235457983","infoHashBuffer":{"type":"Buffer","data":[210,186,81,91,230,211,209,25,4,135,140,131,34,80,214,226,53,69,121,131]},"announce":[],"urlList":[]}}